<mxfile host="app.diagrams.net" modified="2022-09-09T14:57:24.164Z" agent="5.0 (Windows NT 10.0; Win64; x64) AppleWebKit/537.36 (KHTML, like Gecko) Chrome/104.0.0.0 Safari/537.36" etag="DGWZP_Ru_rBc3D1u2Qfe" version="20.3.0" type="github">
  <diagram id="U-T6kL29LSLmfxeKYw6g" name="Página-1">
    <mxGraphModel dx="868" dy="393" grid="1" gridSize="10" guides="1" tooltips="1" connect="1" arrows="1" fold="1" page="1" pageScale="1" pageWidth="827" pageHeight="1169" math="0" shadow="0">
      <root>
        <mxCell id="0" />
        <mxCell id="1" parent="0" />
        <mxCell id="Cdvl41QmhTK2nUv-PBTZ-6" style="edgeStyle=orthogonalEdgeStyle;rounded=0;orthogonalLoop=1;jettySize=auto;html=1;" edge="1" parent="1" source="Cdvl41QmhTK2nUv-PBTZ-1" target="Cdvl41QmhTK2nUv-PBTZ-4">
          <mxGeometry relative="1" as="geometry">
            <Array as="points">
              <mxPoint x="150" y="180" />
            </Array>
          </mxGeometry>
        </mxCell>
        <mxCell id="Cdvl41QmhTK2nUv-PBTZ-1" value="Pessoa" style="whiteSpace=wrap;html=1;align=center;" vertex="1" parent="1">
          <mxGeometry x="100" y="110" width="100" height="40" as="geometry" />
        </mxCell>
        <mxCell id="Cdvl41QmhTK2nUv-PBTZ-8" style="edgeStyle=orthogonalEdgeStyle;rounded=0;orthogonalLoop=1;jettySize=auto;html=1;" edge="1" parent="1" source="Cdvl41QmhTK2nUv-PBTZ-2" target="Cdvl41QmhTK2nUv-PBTZ-4">
          <mxGeometry relative="1" as="geometry">
            <Array as="points">
              <mxPoint x="400" y="110" />
              <mxPoint x="400" y="110" />
            </Array>
          </mxGeometry>
        </mxCell>
        <mxCell id="Cdvl41QmhTK2nUv-PBTZ-2" value="Banco" style="whiteSpace=wrap;html=1;align=center;" vertex="1" parent="1">
          <mxGeometry x="364" y="40" width="100" height="40" as="geometry" />
        </mxCell>
        <mxCell id="Cdvl41QmhTK2nUv-PBTZ-7" style="edgeStyle=orthogonalEdgeStyle;rounded=0;orthogonalLoop=1;jettySize=auto;html=1;entryX=1;entryY=0.5;entryDx=0;entryDy=0;" edge="1" parent="1" source="Cdvl41QmhTK2nUv-PBTZ-3" target="Cdvl41QmhTK2nUv-PBTZ-4">
          <mxGeometry relative="1" as="geometry">
            <Array as="points">
              <mxPoint x="650" y="180" />
            </Array>
          </mxGeometry>
        </mxCell>
        <mxCell id="Cdvl41QmhTK2nUv-PBTZ-3" value="Compania" style="whiteSpace=wrap;html=1;align=center;" vertex="1" parent="1">
          <mxGeometry x="610" y="110" width="100" height="40" as="geometry" />
        </mxCell>
        <mxCell id="Cdvl41QmhTK2nUv-PBTZ-10" style="edgeStyle=orthogonalEdgeStyle;rounded=0;orthogonalLoop=1;jettySize=auto;html=1;entryX=0.5;entryY=0;entryDx=0;entryDy=0;" edge="1" parent="1" source="Cdvl41QmhTK2nUv-PBTZ-4" target="Cdvl41QmhTK2nUv-PBTZ-9">
          <mxGeometry relative="1" as="geometry" />
        </mxCell>
        <mxCell id="Cdvl41QmhTK2nUv-PBTZ-4" value="U" style="ellipse;whiteSpace=wrap;html=1;aspect=fixed;" vertex="1" parent="1">
          <mxGeometry x="380" y="160" width="40" height="40" as="geometry" />
        </mxCell>
        <mxCell id="Cdvl41QmhTK2nUv-PBTZ-9" value="Owner" style="whiteSpace=wrap;html=1;align=center;" vertex="1" parent="1">
          <mxGeometry x="350" y="300" width="100" height="40" as="geometry" />
        </mxCell>
        <mxCell id="Cdvl41QmhTK2nUv-PBTZ-13" style="edgeStyle=orthogonalEdgeStyle;rounded=0;orthogonalLoop=1;jettySize=auto;html=1;entryX=1;entryY=0.5;entryDx=0;entryDy=0;" edge="1" parent="1" source="Cdvl41QmhTK2nUv-PBTZ-11" target="Cdvl41QmhTK2nUv-PBTZ-1">
          <mxGeometry relative="1" as="geometry" />
        </mxCell>
        <mxCell id="Cdvl41QmhTK2nUv-PBTZ-11" value="Liccença" style="ellipse;whiteSpace=wrap;html=1;align=center;fontStyle=4;" vertex="1" parent="1">
          <mxGeometry x="170" y="10" width="100" height="40" as="geometry" />
        </mxCell>
        <mxCell id="Cdvl41QmhTK2nUv-PBTZ-15" style="edgeStyle=orthogonalEdgeStyle;rounded=0;orthogonalLoop=1;jettySize=auto;html=1;entryX=0;entryY=0.5;entryDx=0;entryDy=0;" edge="1" parent="1" source="Cdvl41QmhTK2nUv-PBTZ-12" target="Cdvl41QmhTK2nUv-PBTZ-1">
          <mxGeometry relative="1" as="geometry" />
        </mxCell>
        <mxCell id="Cdvl41QmhTK2nUv-PBTZ-12" value="CPF" style="ellipse;whiteSpace=wrap;html=1;align=center;fontStyle=4;" vertex="1" parent="1">
          <mxGeometry x="30" y="10" width="100" height="40" as="geometry" />
        </mxCell>
      </root>
    </mxGraphModel>
  </diagram>
</mxfile>
